<svg width="14" height="16" viewBox="0 0 14 16" fill="none" xmlns="http://www.w3.org/2000/svg">
<path d="M5.98204 15.6772C1.07332 9.09472 0.16217 8.41916 0.16217 6C0.16217 2.68628 3.06626 0 6.64866 0C10.2311 0 13.1351 2.68628 13.1351 6C13.1351 8.41916 12.224 9.09472 7.31528 15.6772C6.99315 16.1076 6.30413 16.1076 5.98204 15.6772ZM6.64866 8.5C8.14133 8.5 9.35136 7.38072 9.35136 6C9.35136 4.61928 8.14133 3.5 6.64866 3.5C5.15599 3.5 3.94595 4.61928 3.94595 6C3.94595 7.38072 5.15599 8.5 6.64866 8.5Z" fill="#DE7747"/>
</svg>
